<svg width="25" height="40" viewBox="0 0 25 40" fill="none" xmlns="http://www.w3.org/2000/svg">
<g clip-path="url(#clip0_164_693)">
<path d="M21.7777 0C22.3225 0.150061 22.7677 0.439976 23.1543 0.82891C23.5128 1.18926 23.8984 1.52511 24.2623 1.88138C25.21 2.81033 25.2479 4.03226 24.362 5.01021C24.2461 5.13883 24.1161 5.25623 23.9894 5.37566C18.9942 10.0847 13.9968 14.7928 9.00261 19.5029C8.44265 20.0306 8.43181 19.9245 8.98853 20.4492C14.0033 25.1776 19.0169 29.9061 24.036 34.6294C24.6392 35.197 25.0346 35.8258 24.9598 36.667C24.91 37.2305 24.6512 37.6858 24.245 38.0778C23.841 38.4688 23.4305 38.8546 23.0168 39.2374C21.9239 40.2491 20.5408 40.2552 19.4566 39.2374C16.9731 36.9059 14.4971 34.5672 12.019 32.2315C8.33 28.7556 4.64207 25.2797 0.953044 21.8028C-0.316344 20.6064 -0.31851 19.3599 0.947628 18.1666C7.03679 12.4296 13.127 6.69151 19.2108 0.948346C19.6462 0.536954 20.1043 0.176603 20.7 0H21.7766H21.7777Z" fill="green"/>
</g>
<defs>
<clipPath id="clip0_164_693">
<rect width="25" height="40" fill="white"/>
</clipPath>
</defs>
</svg>
