<svg width="25" height="40" viewBox="0 0 25 40" fill="none" xmlns="http://www.w3.org/2000/svg">
<g clip-path="url(#clip0_164_695)">
<path d="M4.29636 0C4.84017 0.152122 5.27348 0.454325 5.67213 0.831057C11.8057 6.62089 17.9468 12.4046 24.0847 18.1914C25.299 19.3369 25.3066 20.61 24.102 21.7453C17.9349 27.5597 11.7667 33.372 5.59847 39.1843C4.66576 40.0623 3.5229 40.242 2.51761 39.6743C2.16988 39.4783 1.90881 39.1863 1.62499 38.9219C1.28158 38.6013 0.929518 38.2879 0.607783 37.9489C-0.172181 37.1281 -0.203596 35.9499 0.518953 35.0872C0.664113 34.9146 0.827689 34.7543 0.992348 34.5981C6.00795 29.8691 11.0246 25.142 16.0402 20.414C16.35 20.122 16.354 19.8338 16.0521 19.5492C11.0192 14.8018 5.9852 10.0544 0.945767 5.31101C0.341295 4.74234 -0.0432704 4.10628 0.0390591 3.26706C0.0888902 2.76373 0.295797 2.33492 0.65653 1.97759C1.14184 1.49672 1.64882 1.03627 2.14604 0.567651C2.4472 0.283826 2.83393 0.142934 3.21958 0L4.29636 0Z" fill="rgba(255,255,225, 0.9)"/>
</g>
<defs>
<clipPath id="clip0_164_695">
<rect width="25" height="40" fill="white"/>
</clipPath>
</defs>
</svg>
