<svg width="64" height="81" viewBox="0 0 64 81" fill="none" xmlns="http://www.w3.org/2000/svg">
<g clip-path="url(#clip0_283_68)">
<path d="M56.2373 81H44.7489C43.9121 80.5085 43.6114 79.7407 43.6262 78.8063C43.6346 78.2536 43.6262 77.701 43.6262 77.1483C43.6198 76.0177 43.6051 75.9987 42.4845 75.9987C35.4955 75.9987 28.5066 75.9987 21.5198 75.9987C21.3621 75.9987 21.2065 76.005 21.0488 75.9987C20.5862 75.9839 20.3823 76.2202 20.3823 76.6737C20.3823 77.3845 20.3697 78.0954 20.376 78.8042C20.3865 79.7386 20.0921 80.5064 19.2532 80.9979H7.76269C6.95951 80.4621 6.69248 79.707 6.74505 78.7535C6.79971 77.7537 6.75135 76.7496 6.75976 75.7477C6.76187 75.387 6.7051 75.0811 6.3792 74.8533C4.07268 73.2375 3.30735 70.9341 3.32207 68.2024C3.35991 61.0306 3.33679 53.8608 3.33258 46.6889C3.33258 45.6638 3.29053 45.63 2.26448 45.6195C0.592937 45.6047 0.00421882 45.0141 0.00211625 43.3181C-0.00208888 39.1795 -0.00208888 35.0388 0.00211625 30.9002C0.00211625 29.2402 0.632886 28.6074 2.27499 28.5799C3.29053 28.5631 3.32838 28.5314 3.33048 27.4957C3.33468 25.1754 3.32417 22.8551 3.33679 20.5348C3.35361 16.7906 6.2993 15.0188 8.81397 15.0884C13.0864 15.2065 17.363 15.1221 21.6396 15.1137C21.9087 15.1137 22.2115 15.2276 22.5521 14.888C21.7742 14.1307 20.9794 13.4072 20.2498 12.6225C19.7641 12.0994 19.2406 11.8885 18.5257 11.8927C14.1986 11.9201 9.86946 11.9117 5.54238 11.9032C4.06007 11.9011 3.37673 11.2261 3.3452 9.73056C3.31786 8.43962 3.33258 7.14658 3.33679 5.85564C3.34309 3.83908 3.91499 3.26533 5.91663 3.26533C15.2794 3.26533 24.6442 3.26533 34.0069 3.26533C35.239 3.26533 35.2642 3.26533 35.2495 2.06931C35.2369 1.13064 35.5817 0.436655 36.408 -0.00842285H53.7206C54.795 0.333296 55.8715 0.664468 56.8155 1.31626C59.4795 3.15564 60.659 5.7565 60.6632 8.94377C60.6716 15.0842 60.6653 21.2224 60.6674 27.3628C60.6674 28.5567 60.6717 28.5567 61.8302 28.5778C63.3188 28.6052 63.9937 29.2676 63.9958 30.7631C64.0042 35.0051 64.0042 39.247 63.9958 43.489C63.9937 44.9613 63.3419 45.5984 61.8785 45.6131C60.6716 45.6258 60.6696 45.6258 60.6674 46.8556C60.6674 54.1287 60.6674 61.3997 60.6674 68.6728C60.6674 71.1703 59.8138 73.2586 57.747 74.7478C57.3601 75.0263 57.2277 75.3574 57.2382 75.8194C57.2613 76.7939 57.2003 77.7706 57.2571 78.743C57.3118 79.6964 57.0342 80.4474 56.2394 80.9895L56.2373 81ZM32.0032 72.4338C39.1897 72.4338 46.3763 72.4402 53.5608 72.4296C55.758 72.4275 57.0889 71.1028 57.112 68.8922C57.1393 66.4938 57.1057 64.0934 57.1288 61.695C57.1351 61.0601 56.9396 60.7985 56.2731 60.8006C52.2614 60.8217 48.2476 60.8217 44.2359 60.8006C43.6472 60.7985 43.3886 61.0369 43.2624 61.5811C42.9407 62.967 42.5938 64.3465 42.2469 65.7239C41.8789 67.1815 41.3512 67.5992 39.8689 67.6013C34.623 67.6055 29.3792 67.6055 24.1333 67.6013C22.651 67.6013 22.1232 67.1836 21.7553 65.726C21.4062 64.3465 21.0719 62.9649 20.7334 61.5832C20.6262 61.1487 20.4832 60.826 19.9239 60.8006C18.4458 60.7352 18.4458 60.7099 18.4458 59.206C18.4458 59.1005 18.4458 58.995 18.4458 58.8895C18.4458 57.7955 18.989 57.2485 20.0753 57.2485C31.9821 57.2485 43.889 57.2485 55.7958 57.2485C56.6803 57.2485 57.1225 56.7942 57.1225 55.8858C57.1225 52.8546 57.1225 49.8213 57.1225 46.7902C57.1225 46.0139 56.7244 45.6258 55.9283 45.6258C54.2756 45.6258 52.623 45.6258 50.9704 45.6258C49.4215 45.6258 48.6527 44.8411 48.6639 43.2717C48.6723 42.1116 48.7102 42.0673 49.8582 42.0652C53.0835 42.061 56.3109 42.0546 59.5363 42.0694C60.1439 42.0715 60.4551 41.9049 60.4488 41.2214C60.4257 38.4792 60.4278 35.737 60.4488 32.997C60.453 32.381 60.2196 32.1532 59.612 32.1638C58.0119 32.187 56.4119 32.1975 54.8139 32.1595C54.1053 32.1427 53.9035 32.4401 53.9224 33.1024C53.9561 34.3406 53.9413 35.581 53.9266 36.8192C53.9098 38.1776 53.258 38.8526 51.9103 38.9328C51.597 38.9517 51.2816 38.9433 50.9662 38.9433C45.4323 38.9433 39.8983 38.9433 34.3643 38.9433C33.7084 38.9433 33.0523 38.956 32.3984 38.937C30.9035 38.8927 30.2433 38.2198 30.2307 36.7327C30.2202 35.6252 30.2307 34.5178 30.2286 33.4104C30.2286 32.5849 29.827 32.1715 29.0238 32.1701C20.9458 32.1701 12.8677 32.1701 4.78966 32.1701C4.60674 32.1701 4.42171 32.1785 4.23879 32.1722C3.77832 32.1595 3.57227 32.3789 3.57227 32.843C3.57648 35.6906 3.57648 38.5383 3.57227 41.3838C3.57227 41.8458 3.78673 42.0631 4.24299 42.0588C4.53104 42.0567 4.81909 42.0652 5.10925 42.0652C17.8024 42.0652 30.4977 42.0588 43.1909 42.0715C45.9179 42.0736 45.5374 41.6855 45.5626 44.4593C45.5731 45.611 45.5542 45.6553 44.362 45.6131C43.6661 45.5878 43.3823 45.8705 43.2393 46.516C42.9218 47.9292 42.5644 49.332 42.1964 50.7347C41.8726 51.9666 41.307 52.4159 40.0707 52.418C34.6945 52.4243 29.3182 52.4243 23.9419 52.418C22.7309 52.418 22.1547 51.9771 21.8436 50.8064C21.4651 49.3805 21.1014 47.9524 20.7776 46.5138C20.6325 45.8663 20.3423 45.611 19.6506 45.6174C15.7167 45.649 11.7828 45.649 7.84889 45.6174C7.06884 45.611 6.86489 45.8937 6.8733 46.6362C6.90484 49.7201 6.88592 52.804 6.88592 55.89C6.88592 56.7999 7.32676 57.2555 8.20843 57.2569C10.2795 57.2569 12.3526 57.2738 14.4236 57.2506C15.1006 57.2442 15.3824 57.5121 15.3466 58.1871C15.3172 58.7651 15.3172 59.3473 15.3466 59.9274C15.3803 60.6108 15.0943 60.8428 14.4152 60.8323C12.2916 60.7985 10.1659 60.8196 8.04233 60.8217C7.27279 60.8217 6.88732 61.1965 6.88592 61.946C6.88592 64.1335 6.93428 66.323 6.8712 68.5104C6.80812 70.6788 8.00238 72.5077 10.7652 72.4739C17.8445 72.3874 24.928 72.4444 32.0095 72.4444L32.0032 72.4338ZM57.1204 18.187C57.1204 15.0504 57.1372 11.9138 57.1162 8.77923C57.0931 5.58564 55.0473 3.52056 51.9019 3.50791C47.8902 3.49314 43.8785 3.50158 39.8689 3.5058C38.8786 3.5058 38.8218 3.56064 38.8218 4.51619C38.8197 9.94572 38.8323 15.3731 38.8071 20.8027C38.8029 21.5494 39.0299 21.8426 39.7953 21.8236C41.4206 21.7835 43.0458 21.8278 44.6711 21.8088C45.304 21.8004 45.59 22.0493 45.5605 22.6948C45.5353 23.2474 45.5248 23.8043 45.5647 24.3549C45.6215 25.1395 45.3166 25.4011 44.5197 25.3927C41.2692 25.3526 38.0186 25.3948 34.768 25.3631C34.0111 25.3547 33.7588 25.5973 33.7693 26.3609C33.8051 29.0229 33.7819 31.6849 33.784 34.347C33.784 35.351 33.8135 35.3784 34.7975 35.3806C39.3853 35.3827 43.9731 35.3869 48.5609 35.3806C50.5751 35.3763 50.3586 35.6168 50.3649 33.5644C50.3712 31.1133 50.3649 28.6622 50.3649 26.2111C50.3649 25.7913 50.346 25.4349 49.7825 25.3758C48.6681 25.2598 48.6681 25.2387 48.6639 24.127C48.6639 23.5744 48.6681 23.0196 48.6765 22.467C48.6828 22.0514 48.8973 21.832 49.3115 21.832C50.2555 21.832 51.2017 21.7856 52.1415 21.8574C53.2748 21.9438 53.8846 22.6378 53.9182 23.7832C53.9455 24.6523 53.9182 25.5235 53.9287 26.3925C53.9666 28.9491 53.5461 28.5335 56.1427 28.6052C56.9039 28.6263 57.1435 28.3627 57.1351 27.6033C57.1015 24.4667 57.1204 21.3321 57.1204 18.1955V18.187ZM21.5387 18.6912C17.3188 18.6912 13.0969 18.687 8.87705 18.6933C7.49146 18.6954 6.89853 19.2734 6.88802 20.6487C6.8712 23.0196 6.89643 25.3927 6.8733 27.7636C6.86699 28.3859 7.11089 28.5926 7.71223 28.5926C14.9219 28.5799 22.1295 28.5778 29.3392 28.5968C30.0457 28.5968 30.2559 28.3163 30.2307 27.6539C30.195 26.7321 30.2223 25.8103 30.2223 24.8864C30.2223 22.2096 30.6155 21.8194 33.2626 21.8088C35.5481 21.7983 35.239 22.0641 35.2558 19.7754C35.2642 18.7418 35.2138 18.6933 34.2024 18.6933C29.9826 18.6891 25.7606 18.6933 21.5408 18.6933L21.5387 18.6912ZM21.0572 6.85337C19.3268 6.85337 17.5964 6.85337 15.866 6.85337C13.1663 6.85337 10.4666 6.86603 7.76479 6.84494C7.14664 6.84072 6.83756 7.01158 6.8712 7.69712C6.90694 8.38478 7.35689 8.33626 7.80894 8.33626C11.6882 8.33626 15.5695 8.3658 19.4487 8.31939C20.5358 8.30673 21.3495 8.65478 22.0917 9.42681C23.7674 11.1692 25.4999 12.8567 27.1946 14.5821C27.571 14.966 27.9704 15.1453 28.5129 15.1369C30.4515 15.1137 32.3921 15.101 34.3328 15.1411C35.0771 15.1559 35.279 14.8648 35.2685 14.1624C35.2348 12.0804 35.2579 9.99845 35.2558 7.9165C35.2558 6.88291 35.2285 6.85548 34.1898 6.85548C29.8123 6.85548 25.4348 6.85548 21.0572 6.85548V6.85337ZM32.081 45.6258C29.7219 45.6258 27.3649 45.6427 25.0058 45.6152C24.3793 45.6089 24.2026 45.8199 24.373 46.4084C24.5327 46.9652 24.6904 47.5242 24.7977 48.0917C24.907 48.6738 25.2287 48.8468 25.7901 48.8447C29.93 48.8299 34.07 48.8299 38.212 48.8447C38.7713 48.8447 39.0972 48.6759 39.2066 48.0938C39.3138 47.5263 39.4715 46.9674 39.6313 46.4105C39.7995 45.8262 39.6313 45.6089 39.0005 45.6152C36.694 45.6427 34.3896 45.6258 32.0831 45.6258H32.081ZM31.9969 60.8133C29.6651 60.8133 27.3313 60.8302 24.9995 60.8027C24.3645 60.7943 24.2048 61.02 24.3709 61.6001C24.5306 62.157 24.682 62.716 24.7977 63.2834C24.9028 63.8065 25.1656 64.0322 25.7144 64.0322C29.9069 64.0174 34.0994 64.0195 38.2919 64.0322C38.7902 64.0322 39.0762 63.855 39.1855 63.3551C39.3138 62.7645 39.4631 62.176 39.6292 61.5959C39.7995 61.0031 39.6124 60.7985 38.9921 60.807C36.6604 60.8344 34.3286 60.8175 31.9948 60.8175L31.9969 60.8133ZM13.5952 77.4963C14.432 77.4963 15.2688 77.4879 16.1078 77.5006C16.6502 77.509 16.8437 77.2495 16.8374 76.7243C16.8311 76.2307 16.6523 75.9987 16.1456 76.0008C14.4446 76.0113 12.7437 76.0135 11.0427 76.0008C10.5002 75.9966 10.3005 76.2392 10.3026 76.7686C10.3026 77.3234 10.5759 77.5111 11.0847 77.5027C11.9216 77.4921 12.7584 77.5006 13.5973 77.4985L13.5952 77.4963ZM50.449 76.0029C49.5848 76.0029 48.7228 76.0135 47.8586 75.9987C47.3519 75.9902 47.1627 76.2244 47.1648 76.7201C47.169 77.182 47.2825 77.4942 47.8124 77.4942C49.5386 77.4921 51.2648 77.49 52.9931 77.4963C53.5524 77.4963 53.7016 77.1884 53.6974 76.6863C53.6911 76.1717 53.4409 75.9924 52.9615 76.0008C52.1247 76.0135 51.2879 76.005 50.449 76.005V76.0029Z" fill="#31B224"/>
<path d="M20.1741 38.9391C18.3113 38.9391 16.4505 38.9433 14.5876 38.9391C13.4522 38.937 13.4123 38.8927 13.406 37.7198C13.4039 37.1925 13.4165 36.6652 13.4102 36.1378C13.4039 35.6295 13.591 35.37 14.1503 35.3721C18.2145 35.3869 22.2788 35.3848 26.3452 35.3742C26.8624 35.3742 27.039 35.5978 27.0243 36.0893C27.0054 36.7474 26.9885 37.4098 27.0306 38.0658C27.0726 38.7345 26.7741 38.9475 26.1517 38.9412C24.1585 38.9243 22.1653 38.9348 20.172 38.9348V38.9391H20.1741Z" fill="#31B224"/>
<path d="M8.60161 35.3763C10.3194 35.4122 10.3068 35.0578 10.3005 37.0744C10.2942 39.1141 10.4687 38.9306 8.42499 38.9391C6.44648 38.9475 6.7913 38.9369 6.75766 37.2874C6.75766 37.2621 6.75766 37.2347 6.75766 37.2094C6.7934 35.0894 6.46961 35.4122 8.60161 35.3763Z" fill="#31B224"/>
<path d="M42.0828 20.3112C40.1022 20.2795 40.2936 20.5854 40.2957 18.4971C40.2957 16.7084 40.0328 16.7463 42.0219 16.7484C44.116 16.7506 43.8448 16.6598 43.8469 18.5562C43.8511 20.5727 44.0298 20.2838 42.0807 20.3133L42.0828 20.3112Z" fill="#31B224"/>
</g>
<defs>
<clipPath id="clip0_283_68">
<rect width="64" height="81" fill="white"/>
</clipPath>
</defs>
</svg>
