<svg width="74" height="74" viewBox="0 0 74 74" fill="none" xmlns="http://www.w3.org/2000/svg">
<g clip-path="url(#clip0_282_35)">
<path d="M33.4017 73.9801C26.2848 73.9801 19.1679 73.9147 12.051 74C5.59605 74.0773 -0.644176 68.5781 0.0516118 60.9292C0.439265 56.6596 2.6638 53.4648 6.44491 51.4083C6.94389 51.1366 7.15461 50.8689 7.1566 50.2779C7.17648 45.3975 9.41294 41.8179 13.6553 39.4719C14.1443 39.2022 14.3093 38.9067 14.2755 38.3614C14.0807 35.3312 13.037 32.6639 11.226 30.2088C5.95984 23.0656 7.95974 13.384 15.6711 9.04692C24.3803 4.15061 35.2565 9.36621 36.8449 19.3512C37.483 23.365 36.5188 27.0199 34.0876 30.2841C33.9444 30.4765 33.6542 30.6669 33.7397 30.9029C33.8391 31.1805 34.177 31.0199 34.4076 31.0536C35.1432 31.1587 35.8887 31.2301 36.5924 31.478C37.0854 31.6525 37.3001 31.4958 37.4412 31.008C37.9899 29.1042 38.5764 27.2103 39.137 25.3105C39.2881 24.8008 39.5147 24.3606 39.9004 23.9778C47.1664 16.7275 54.4145 9.46338 61.6865 2.22104C64.3921 -0.47402 68.2845 -0.731825 71.2188 1.52496C74.5228 4.06533 74.9581 8.95173 72.1034 11.9859C70.6104 13.5744 69.034 15.0855 67.4913 16.6284C61.7401 22.3774 55.985 28.1225 50.2437 33.8815C49.7348 34.3912 49.1742 34.7283 48.4844 34.9226C46.9815 35.345 45.4965 35.8269 43.9956 36.2553C43.5463 36.3842 43.4568 36.521 43.6954 36.9613C44.5045 38.4466 44.4866 38.4565 46.2281 38.2225C53.1482 37.2944 59.5971 42.8888 59.6011 49.8674C59.6011 50.7162 59.8496 51.1544 60.609 51.5788C65.2091 54.149 67.5808 59.3209 66.555 64.368C65.5272 69.4289 61.4042 73.2563 56.2335 73.9246C55.6947 73.994 55.1441 73.9742 54.5994 73.9742C47.5322 73.9762 40.4649 73.9742 33.3977 73.9742L33.4017 73.9801ZM14.2377 42.1114C14.0767 42.1848 14.0071 42.2106 13.9435 42.2483C13.8381 42.3117 13.7308 42.3772 13.6334 42.4525C10.7926 44.6082 9.41095 47.4282 9.73896 51.0236C9.87415 52.5089 9.7171 52.7806 8.50245 53.2684C4.46489 54.8906 2.27614 58.5852 2.62404 63.194C2.90434 66.8964 5.98767 70.3332 9.87216 71.2117C11.9496 71.6817 14.0688 71.4536 16.172 71.4953C16.6432 71.5052 16.669 71.1998 16.667 70.8508C16.663 69.4884 16.667 68.124 16.667 66.7616C16.667 64.4453 16.7386 64.3481 19.0327 64.3759C19.6649 64.3838 19.9273 64.1379 20.1837 63.5965C20.4501 63.0333 20.1738 62.7735 19.8398 62.4622C19.6768 62.3095 19.5237 62.1488 19.3667 61.9902C18.4005 61.0145 18.3946 60.4612 19.3667 59.4816C20.6589 58.1786 21.961 56.8857 23.2571 55.5887C24.7978 54.0498 25.088 54.0478 26.6188 55.5709C26.9428 55.8921 27.1814 56.2689 27.8016 55.9833C28.39 55.7116 28.6684 55.4043 28.5789 54.7598C28.5411 54.492 28.569 54.2144 28.5749 53.9427C28.5908 52.8778 28.9964 52.4692 30.0739 52.4633C32.0081 52.4554 33.9424 52.4613 35.8767 52.4613C38.0854 52.4613 38.2185 52.5684 38.1867 54.7558C38.1768 55.3943 38.3776 55.7077 38.968 55.9814C39.5902 56.2689 39.8268 55.8921 40.1548 55.5748C40.3158 55.4201 40.4709 55.2595 40.6299 55.1028C41.5384 54.2104 42.115 54.2025 43.0334 55.1088C44.3574 56.4157 45.6655 57.7344 46.9815 59.0492C48.5301 60.5981 48.5321 60.8618 46.9994 62.4027C46.6773 62.7259 46.2996 62.9659 46.5839 63.5866C46.8543 64.1736 47.1604 64.4592 47.8045 64.366C48.047 64.3303 48.2995 64.358 48.548 64.36C49.713 64.3719 50.1026 64.7586 50.1066 65.9326C50.1125 67.5687 50.1105 69.2048 50.1066 70.8409C50.1066 71.1839 50.1105 71.5012 50.5896 71.4973C52.5478 71.4794 54.5159 71.6341 56.4561 71.3208C60.4003 70.6822 63.74 67.1939 64.1436 63.3645C64.6167 58.8747 62.3922 54.96 58.4441 53.3319C57.0187 52.7449 56.8398 52.499 57.0545 50.9859C57.1877 50.0558 57.1062 49.1475 56.9173 48.2571C55.6928 42.5021 50.1245 39.3727 44.5045 41.2527C43.3535 41.6375 42.775 41.3638 42.3992 40.2215C42.111 39.343 41.7094 38.526 41.2124 37.7486C40.9659 37.3619 40.6995 37.2191 40.2244 37.3837C39.3596 37.6831 38.475 37.937 37.5903 38.1749C36.2187 38.5438 35.4692 37.7744 35.837 36.3882C35.99 35.8131 36.1511 35.2399 36.3399 34.6767C36.485 34.2424 36.3459 34.056 35.9125 33.937C35.0915 33.709 34.2585 33.6296 33.4136 33.6296C32.024 33.6296 32.03 33.6396 31.6304 34.9623C30.9744 37.1358 31.0599 39.3688 31.0579 41.5978C31.0539 43.6503 30.0202 44.9592 28.0064 45.3935C27.5968 45.4827 27.5054 45.6632 27.4597 46.0281C27.3424 46.9582 26.9826 47.801 26.3544 48.503C24.9847 50.0399 23.2611 50.5595 21.3049 49.9943C19.3687 49.4351 18.2494 48.0548 17.8856 46.0737C17.834 45.7881 17.8896 45.4867 17.4582 45.4153C15.6134 45.1139 14.6055 43.9577 14.2397 42.1174L14.2377 42.1114ZM19.0466 34.6628C19.0466 33.6971 19.0347 32.7293 19.0526 31.7635C19.0605 31.3272 18.9114 31.1071 18.4522 31.1428C18.2554 31.1587 18.0566 31.1448 17.8578 31.1428C15.9712 31.1051 14.4325 29.707 14.2974 27.9083C14.1483 25.9371 15.3709 24.2892 17.2336 23.9441C19.0804 23.603 20.8398 24.6917 21.3984 26.4964C21.5634 27.0318 21.5296 27.5752 21.5316 28.1166C21.5316 28.4854 21.6787 28.6322 22.0584 28.6639C23.7024 28.8027 23.7163 28.8008 23.8197 27.1885C23.9151 25.6873 24.9906 24.42 26.5233 24.0036C27.9845 23.607 29.6305 24.2079 30.4396 25.4691C31.2269 26.6967 31.3084 27.9837 30.6106 29.2727C29.9387 30.5142 28.8532 31.1111 27.4497 31.1388C26.2987 31.1626 26.2987 31.1587 26.2987 32.3208C26.2987 33.7585 26.2848 35.1943 26.3027 36.6321C26.3246 38.3832 25.9945 38.1571 27.903 38.1769C27.9527 38.1769 28.0024 38.173 28.0521 38.1769C28.4338 38.2007 28.565 38.0064 28.5869 37.6395C28.7996 34.2404 30.0997 31.2777 32.1513 28.5886C33.9703 26.2049 34.666 23.484 34.4215 20.4915C33.8629 13.7152 27.4855 8.75342 20.7722 9.90165C11.9695 11.4068 7.90208 21.5247 13.2557 28.6818C15.0786 31.117 16.2774 33.7744 16.6909 36.7927C16.8936 38.2721 16.9274 38.2523 18.4542 38.1868C18.9075 38.167 19.0645 37.9984 19.0566 37.5602C19.0387 36.5944 19.0506 35.6286 19.0506 34.6609L19.0466 34.6628ZM21.5534 71.4953C22.1478 71.4953 22.7462 71.4556 23.3386 71.5052C23.9509 71.5568 24.0523 71.3148 23.9469 70.7734C23.7124 69.5697 23.7044 68.3461 23.9927 67.1582C24.933 63.303 27.3086 60.7369 31.1792 59.8207C35.0139 58.9124 38.3 60.0785 40.8307 63.1047C42.6815 65.3179 43.3018 67.9197 42.8266 70.7655C42.7392 71.291 42.7968 71.533 43.425 71.5072C44.6138 71.4576 45.8046 71.4814 46.9954 71.4973C47.4288 71.5032 47.6316 71.3624 47.6236 70.9003C47.6057 69.7363 47.6097 68.5702 47.6236 67.4061C47.6276 66.9916 47.4586 66.8131 47.0471 66.8369C46.8006 66.8508 46.5521 66.8389 46.3036 66.8369C45.2917 66.827 44.9876 66.6208 44.6715 65.6629C44.4389 64.955 44.1546 64.2708 43.8226 63.6045C43.4071 62.7735 43.4886 62.3571 44.1526 61.6769C44.256 61.5698 44.3514 61.4508 44.4707 61.3635C44.9975 60.9729 45.0591 60.6298 44.5045 60.1618C43.8624 59.6204 43.3018 58.9818 42.7034 58.3889C41.6577 57.3576 41.9003 57.4151 40.9023 58.3849C40.1886 59.079 39.799 59.1325 38.9084 58.722C38.2782 58.4325 37.64 58.1568 36.988 57.9228C35.9026 57.5322 35.7236 57.3061 35.7177 56.136C35.7177 55.9377 35.7038 55.7394 35.7177 55.5411C35.7535 55.0909 35.5487 54.9244 35.1054 54.9323C33.9643 54.9501 32.8232 54.9482 31.6841 54.9323C31.2507 54.9263 31.0241 55.0652 31.0579 55.5292C31.0758 55.7751 31.0619 56.025 31.0579 56.2729C31.048 57.2466 30.8352 57.5659 29.9347 57.8673C29.2031 58.1112 28.4875 58.3809 27.8076 58.7458C27.1038 59.1226 26.4776 59.0473 25.9309 58.4404C25.748 58.2381 25.5274 58.0696 25.3564 57.8574C25.0821 57.5183 24.8654 57.5599 24.5791 57.8633C23.9489 58.5297 23.2869 59.1643 22.6409 59.8167C21.5654 60.9074 21.619 60.6437 22.617 61.6689C23.3009 62.3729 23.3525 62.7616 22.9271 63.6639C22.6747 64.2014 22.4321 64.7467 22.2293 65.304C21.7025 66.7596 21.623 66.827 20.1042 66.833C19.981 66.833 19.8557 66.8409 19.7325 66.833C19.3289 66.8052 19.142 66.9718 19.148 67.3922C19.1619 68.5563 19.1639 69.7224 19.148 70.8865C19.14 71.3406 19.3269 71.5072 19.7682 71.4913C20.3626 71.4715 20.959 71.4854 21.5534 71.4874V71.4953ZM33.3381 71.4953H38.1748C39.5425 71.4953 40.298 70.8085 40.4411 69.4348C40.453 69.3119 40.463 69.1869 40.457 69.064C40.2423 64.3342 36.1809 61.655 32.3978 62.1865C28.3801 62.7517 25.5512 66.7933 26.5055 70.7417C26.6387 71.291 26.8732 71.5171 27.4637 71.5072C29.4218 71.4735 31.3819 71.4953 33.3401 71.4953H33.3381ZM66.8731 2.57601C65.889 2.62559 65.0064 2.8477 64.235 3.38513C63.253 4.0693 62.5035 5.00533 61.6427 5.82238C61.3903 6.06035 61.4936 6.24478 61.6944 6.44507C63.6565 8.40241 65.6167 10.3597 67.5728 12.321C67.7756 12.5253 67.9605 12.6126 68.1951 12.3647C68.9922 11.5219 69.9306 10.8 70.5826 9.83026C71.6044 8.30722 71.7098 6.69495 70.8609 5.05491C70.016 3.42479 68.5867 2.72475 66.8711 2.578L66.8731 2.57601ZM46.5461 25.6238C46.8185 25.3759 46.9994 25.2212 47.1664 25.0527C49.7269 22.4964 52.2854 19.9382 54.8439 17.38C55.8776 16.3468 56.8994 15.2997 57.9531 14.2863C58.3089 13.9452 58.3089 13.7112 57.9471 13.388C57.468 12.9576 56.9949 12.5134 56.5834 12.0196C56.154 11.504 55.8717 11.5615 55.4144 12.0236C51.6651 15.8094 47.888 19.5654 44.1228 23.3373C43.9777 23.482 43.7411 23.5792 43.753 23.8668C44.4031 23.8985 45.0611 23.841 45.6754 23.9798C46.4149 24.1484 46.572 24.8107 46.5441 25.6238H46.5461ZM48.4943 27.4384C50.6791 27.3967 49.9237 29.1379 50.1583 30.3099C50.2795 30.2306 50.3491 30.1988 50.3988 30.1493C54.3091 26.2445 58.2135 22.3338 62.1338 18.437C62.4995 18.0741 62.4419 17.85 62.1 17.5386C61.6427 17.1222 61.1875 16.6938 60.7879 16.2238C60.3585 15.7181 60.0663 15.6904 59.5653 16.198C56.0307 19.7776 52.4603 23.3214 48.9058 26.8811C48.7548 27.0318 48.542 27.1429 48.4923 27.4384H48.4943ZM22.7045 40.6638C21.0942 40.6638 19.484 40.6499 17.8737 40.6737C17.5119 40.6796 16.9811 40.4337 16.8201 40.9295C16.665 41.4154 16.7088 41.9706 17.0348 42.4267C17.3588 42.8789 17.8518 42.9384 18.3628 42.9384C21.2374 42.9364 24.11 42.9384 26.9846 42.9384C27.2847 42.9384 27.579 42.9205 27.8553 42.7916C28.402 42.5398 28.7081 41.7941 28.561 41.0624C28.4278 40.4059 27.895 40.6816 27.5352 40.6757C25.925 40.6459 24.3147 40.6638 22.7045 40.6638ZM47.6176 31.2915C47.6037 29.7864 47.7787 29.9688 46.2559 29.9549C46.0829 29.9549 45.91 29.9549 45.737 29.9549C44.4111 29.951 44.0532 29.598 44.0473 28.297C44.0373 26.304 44.0373 26.3139 42.0712 26.3774C41.6617 26.3913 41.4291 26.5182 41.3178 26.9208C41.1409 27.5633 40.948 28.2038 40.7373 28.8364C40.6021 29.245 40.7174 29.5286 41.0216 29.8181C41.8088 30.5697 42.6537 31.2836 43.3157 32.1364C44.1944 33.2687 45.1168 33.4452 46.4249 32.9118C47.8144 32.3446 47.5878 32.5964 47.6157 31.2915H47.6176ZM66.0282 14.4013C65.899 14.2506 65.7658 14.0781 65.6127 13.9254C64.0203 12.331 62.426 10.7385 60.8316 9.14608C59.5633 7.87688 59.5832 7.8987 58.3049 9.1322C57.8358 9.58435 57.9153 9.8362 58.3387 10.2487C60.0245 11.8907 61.6745 13.5664 63.3385 15.2283C64.0024 15.892 64.6644 15.892 65.3244 15.2283C65.565 14.9864 65.8612 14.7861 66.0242 14.4033L66.0282 14.4013ZM23.8098 34.7362C23.8098 34.0421 23.8197 33.348 23.8098 32.6539C23.7839 30.9465 24.0901 31.1805 22.2453 31.1369C21.6807 31.123 21.5177 31.3352 21.5276 31.8746C21.5534 33.4611 21.5196 35.0476 21.5415 36.6341C21.5654 38.3812 21.1857 38.1571 23.2154 38.1849C23.6726 38.1908 23.8257 38.0004 23.8177 37.5622C23.7998 36.6202 23.8118 35.6782 23.8138 34.7362H23.8098ZM22.6786 47.684C23.6408 47.678 24.6646 46.8729 24.8733 45.9825C24.9568 45.6235 24.925 45.4153 24.4797 45.4213C23.2691 45.4351 22.0564 45.4351 20.8457 45.4213C20.3786 45.4153 20.3925 45.6592 20.472 45.9964C20.6867 46.8888 21.7244 47.6899 22.6786 47.684ZM39.3219 35.0079C40.0296 34.7898 40.7631 34.5637 41.4947 34.3356C41.7193 34.2642 41.7671 34.1234 41.5981 33.9529C41.0951 33.4412 40.5862 32.9336 40.0773 32.4279C39.8805 32.2335 39.7334 32.2672 39.6499 32.5369C39.4332 33.2469 39.2125 33.9549 39.0018 34.6648C38.9263 34.9167 39.0137 35.0496 39.3219 35.0079ZM19.0466 27.9718C19.0367 27.0159 18.5993 26.4329 17.9294 26.417C17.3529 26.4012 16.7764 26.9902 16.8042 27.5653C16.838 28.2554 17.4463 28.6461 18.3806 28.6718C18.979 28.6877 19.1122 28.4081 19.0466 27.9738V27.9718ZM26.9428 28.66C27.9328 28.6639 28.5372 28.2157 28.5352 27.5216C28.5352 26.9684 27.9944 26.423 27.4418 26.417C26.752 26.4111 26.3166 27.0219 26.2888 27.944C26.2729 28.4795 26.4319 28.7551 26.9448 28.66H26.9428Z" fill="#31B224"/>
<path d="M5.19455 6.91314C5.32377 6.58394 5.61799 6.37968 5.86052 6.1417C7.0036 5.01331 6.6895 5.02917 7.80674 6.12782C8.9359 7.23837 10.0372 8.37866 11.1763 9.47929C11.57 9.86005 11.6614 10.1159 11.2181 10.5561C9.94181 11.8194 9.96169 11.8392 8.67746 10.5561C7.64372 9.52292 6.60998 8.4917 5.58021 7.45651C5.42515 7.30183 5.23232 7.16896 5.19654 6.91314H5.19455Z" fill="#31B224"/>
<path d="M38.491 5.29889C38.7852 5.33855 38.9323 5.59041 39.1212 5.77484C39.9044 6.54429 39.9084 7.31638 39.1331 8.09112C38.0656 9.15803 36.9841 10.2131 35.9364 11.2998C35.5707 11.6786 35.3281 11.744 34.9146 11.3355C33.6125 10.0465 33.5966 10.0623 34.9146 8.74753C35.9305 7.73217 36.9443 6.71682 37.9622 5.70345C38.1172 5.54876 38.2504 5.35838 38.491 5.29889Z" fill="#31B224"/>
<path d="M4.1449 16.8624C3.35369 16.8624 2.5605 16.8545 1.76929 16.8664C1.36374 16.8723 1.1888 16.6998 1.19278 16.2913C1.21067 13.9393 0.93434 14.4291 2.95809 14.3875C4.1449 14.3617 5.33371 14.4034 6.52251 14.3756C7.06721 14.3637 7.26601 14.56 7.25607 15.1074C7.21432 17.2015 7.48866 16.8267 5.55636 16.8664C5.0872 16.8763 4.61605 16.8664 4.1449 16.8664C4.1449 16.8664 4.1449 16.8644 4.1449 16.8624Z" fill="#31B224"/>
<path d="M41.1608 14.3855C41.952 14.3855 42.7452 14.3974 43.5364 14.3816C43.9778 14.3717 44.1587 14.5501 44.1527 14.9944C44.1269 17.2749 44.4032 16.8248 42.4212 16.8625C41.2085 16.8863 39.9959 16.8506 38.7832 16.8724C38.2723 16.8823 38.0795 16.6959 38.0894 16.1803C38.1292 14.0206 37.8449 14.4292 39.8229 14.3836C40.2682 14.3736 40.7135 14.3836 41.1588 14.3836L41.1608 14.3855Z" fill="#31B224"/>
<path d="M23.9092 3.72625C23.9092 4.34498 23.8993 4.96372 23.9132 5.58046C23.9212 5.987 23.7482 6.15953 23.3387 6.15755C20.985 6.1397 21.4819 6.41536 21.4322 4.39456C21.4124 3.5795 21.4462 2.76246 21.4263 1.9474C21.4144 1.47145 21.6012 1.28503 22.0783 1.29297C24.3029 1.3247 23.8635 1.04111 23.9132 3.05992C23.9192 3.28203 23.9132 3.50414 23.9132 3.72823C23.9132 3.72823 23.9112 3.72823 23.9092 3.72823V3.72625Z" fill="#31B224"/>
<path d="M62.0066 62.0934C61.9967 65.663 59.3467 68.6991 55.824 69.181C54.8639 69.3119 54.7664 69.2266 54.7625 68.2351C54.7625 68.1359 54.7625 68.0368 54.7625 67.9376C54.7784 66.6982 54.6412 66.7973 55.8539 66.5673C57.9432 66.1707 59.5415 64.134 59.5097 61.9982C59.4779 59.7811 57.8716 57.8019 55.7227 57.4806C54.9195 57.3616 54.7227 57.0404 54.7466 56.2828C54.7983 54.6825 54.8142 54.6388 56.3906 54.9898C59.7264 55.7335 62.0185 58.6308 62.0086 62.0934H62.0066Z" fill="#31B224"/>
<path d="M53.5836 50.1828C52.3391 50.1669 52.4385 50.3018 52.2139 49.0941C51.8879 47.337 50.375 45.8437 48.6018 45.5879C47.8225 45.4749 47.576 45.1893 47.5998 44.4119C47.6535 42.7897 47.6913 42.6965 49.2896 43.109C52.2179 43.8666 54.0468 45.7366 54.7287 48.6895C55.0607 50.1233 54.999 50.1828 53.5816 50.1828H53.5836Z" fill="#31B224"/>
<path d="M30.9765 21.6259C29.8433 21.5902 29.7897 21.8976 29.6107 20.3944C29.2668 17.5248 26.597 14.9289 23.7264 14.6176C22.9908 14.5382 22.6224 14.1211 22.6211 13.3662C22.6211 11.8888 22.7145 11.8134 24.1856 12.0871C28.416 12.8784 31.3602 15.8154 32.1573 20.0414C32.1673 20.091 32.1812 20.1386 32.1891 20.1861C32.4118 21.5267 32.3283 21.6239 30.9785 21.6239L30.9765 21.6259Z" fill="#31B224"/>
</g>
<defs>
<clipPath id="clip0_282_35">
<rect width="74" height="74" fill="white"/>
</clipPath>
</defs>
</svg>
