<svg width="20" height="20" viewBox="0 0 20 20" fill="none" xmlns="http://www.w3.org/2000/svg">
<g clip-path="url(#clip0_200_124)">
<path d="M19.9999 4.82058V15.2003C19.9799 15.2956 19.9579 15.3904 19.9403 15.4862C19.6162 17.2675 18.6411 18.5734 17.0524 19.4272C16.4732 19.7385 15.8431 19.8934 15.1994 19.9999H4.81811C4.53411 19.9315 4.24474 19.8939 3.96123 19.8191C1.72347 19.2268 0.0180274 17.0657 0.00776244 14.7502C-0.00690175 11.5907 0.00336318 8.43068 0.0043408 5.27068C0.0043408 4.73945 0.109923 4.22533 0.27514 3.72244C1.00346 1.50565 3.1327 -0.0191272 5.50195 -6.74609e-05C8.50615 0.0243681 11.5108 0.00579707 14.515 0.00628578C14.7751 0.00628578 15.0342 0.00628578 15.2932 0.0468488C17.204 0.343496 18.598 1.35317 19.4779 3.07246C19.7595 3.62226 19.8973 4.21653 19.9999 4.82058ZM18.8141 9.69205C18.7872 8.38963 18.8791 6.76271 18.7774 5.14019C18.6792 3.57339 17.8761 2.43322 16.5108 1.68403C15.8563 1.32483 15.1393 1.20949 14.4021 1.209C11.6775 1.20607 8.95243 1.20754 6.22782 1.20851C5.87051 1.20851 5.51368 1.2046 5.15587 1.23393C3.56627 1.3649 2.4122 2.15075 1.66335 3.54455C1.3163 4.19014 1.20632 4.89437 1.20534 5.61766C1.20241 8.34174 1.20338 11.0663 1.20485 13.7904C1.20485 14.1476 1.20094 14.5044 1.23027 14.8621C1.36127 16.4514 2.14776 17.6052 3.54183 18.354C4.18755 18.7009 4.8924 18.8114 5.61535 18.8124C8.31405 18.8158 11.0127 18.8143 13.7114 18.8133C14.101 18.8133 14.4906 18.8197 14.8807 18.786C16.4453 18.6511 17.5872 17.876 18.3365 16.511C18.6924 15.863 18.8097 15.1524 18.8121 14.4228C18.8175 12.9532 18.8136 11.4841 18.8136 9.69205H18.8141Z" fill="#31B224"/>
<path d="M15.4874 10.0073C15.4883 13.0397 13.0399 15.4886 10.0069 15.4881C6.9748 15.4877 4.52783 13.0373 4.52979 10.0038C4.53174 6.97383 6.98457 4.5293 10.0201 4.53272C13.0409 4.53614 15.4864 6.98458 15.4874 10.0073ZM9.80694 5.75987C7.58874 5.81216 5.50007 7.81148 5.7694 10.4754C5.98252 12.5833 7.883 14.5 10.4639 14.2493C12.5838 14.043 14.5078 12.1302 14.2463 9.5464C14.0219 7.32619 12.0491 5.62743 9.80694 5.76036V5.75987Z" fill="#31B224"/>
<path d="M15.6047 5.84979C14.6916 5.84979 13.973 5.12846 13.975 4.21359C13.9769 3.31925 14.7116 2.58472 15.6017 2.58569C16.4977 2.58716 17.2436 3.33587 17.2397 4.23021C17.2358 5.1221 16.5011 5.84979 15.6047 5.84979ZM16.0084 4.2175C16.006 3.98683 15.8305 3.81578 15.5983 3.81725C15.3681 3.81871 15.1921 3.99758 15.195 4.22678C15.1985 4.45501 15.3808 4.63339 15.6081 4.63095C15.8368 4.62851 16.0109 4.44866 16.0084 4.21799V4.2175Z" fill="#31B224"/>
</g>
<defs>
<clipPath id="clip0_200_124">
<rect width="20" height="20" fill="white"/>
</clipPath>
</defs>
</svg>
