<svg width="60" height="40" viewBox="0 0 60 40" fill="none" xmlns="http://www.w3.org/2000/svg">
<g clip-path="url(#clip0_164_683)">
<path d="M33.964 39.9861C27.4956 39.9861 21.0255 39.99 14.5571 39.9821C13.4562 39.9821 12.3536 39.9662 11.3047 39.4627C9.34533 38.5233 8.02292 36.3123 8.00215 33.8684C7.99522 33.0982 7.99003 32.326 8.00215 31.5558C8.01946 30.5926 8.57162 29.894 9.32629 29.8482C10.0567 29.8045 10.7145 30.4891 10.7733 31.4324C10.8201 32.1747 10.7854 32.925 10.7993 33.6693C10.8027 33.8803 10.7214 34.1728 10.9343 34.2763C11.1403 34.3778 11.2805 34.1211 11.4207 33.9838C13.6587 31.7867 15.8916 29.5856 18.1245 27.3844C20.4231 25.1177 22.7217 22.8509 25.0221 20.5861C25.4214 20.1934 25.4323 19.8093 25.055 19.4338C20.6031 15.0475 16.1547 10.6592 11.6976 6.27892C11.464 6.05005 11.2424 5.5764 10.9239 5.74357C10.6522 5.88686 10.8097 6.37843 10.7993 6.71476C10.7785 7.31181 10.8149 7.91084 10.7802 8.5059C10.7231 9.45719 10.1017 10.1517 9.36783 10.1398C8.59412 10.1279 7.99522 9.40146 8.00561 8.40241C8.01773 7.2123 7.88618 6.01423 8.12677 4.83407C8.67547 2.16528 10.6435 0.27066 13.0252 0.0776158C13.8041 0.013931 14.5813 0 15.3585 0C28.1014 0 40.846 0 53.5889 0C54.2813 0 54.9788 0.0199015 55.6539 0.183094C58.181 0.796059 59.9673 3.24195 59.976 6.27295C60.0054 15.4276 60.0088 24.5823 59.9742 33.735C59.9621 36.8456 57.9681 40.0299 53.8901 39.998C47.2486 39.9463 40.6054 39.9841 33.964 39.9841V39.9861ZM13.0443 3.3335C13.2537 3.54645 13.3333 3.63003 13.4129 3.70765C16.2205 6.47196 19.0297 9.23827 21.8373 12.0026C25.4998 15.6087 29.159 19.2169 32.8267 22.8171C33.6801 23.6549 34.2721 23.639 35.1185 22.8071C41.5436 16.4904 47.9704 10.1756 54.3921 3.85492C54.5236 3.72556 54.7486 3.64197 54.6932 3.3335H13.0443ZM54.688 36.6526C54.714 36.6028 54.74 36.555 54.7659 36.5053C53.8364 35.5878 52.9087 34.6704 51.9792 33.7549C48.2214 30.0473 44.4601 26.3456 40.7127 22.624C40.2869 22.2001 40.0083 22.1722 39.579 22.636C38.6668 23.6251 37.6975 24.5425 36.749 25.4858C34.9592 27.265 32.9116 27.2431 31.1287 25.4401C30.1715 24.4709 29.1901 23.5315 28.2485 22.5444C27.911 22.1902 27.7015 22.1603 27.3363 22.5225C23.5076 26.3257 19.6598 30.103 15.8189 33.8902C14.9258 34.7719 14.0378 35.6595 13.0408 36.6526H54.688ZM57.1909 20.0428C57.1909 15.7162 57.1909 11.3876 57.1909 7.06105C57.1909 6.7884 57.1927 6.51376 57.1702 6.24111C57.1546 6.04806 57.1598 5.79929 57.0023 5.70178C56.8084 5.58038 56.7011 5.83114 56.5782 5.95253C52.0121 10.4483 47.4529 14.954 42.8764 19.4378C42.4402 19.8637 42.3848 20.0766 42.8591 20.5403C47.3577 24.9366 51.8321 29.3646 56.3203 33.7748C56.5245 33.9758 56.7115 34.4117 56.9763 34.2763C57.2584 34.133 57.1736 33.6654 57.1875 33.325C57.1979 33.1021 57.1909 32.8773 57.1909 32.6544C57.1909 28.4512 57.1909 24.248 57.1909 20.0448V20.0428Z" fill="#31B224"/>
<path d="M7.36513 25.4142C5.46114 25.4142 3.55888 25.4202 1.65488 25.4122C0.675194 25.4083 0.0243745 24.7833 0.000141907 23.848C-0.0240907 22.8967 0.652692 22.2001 1.65835 22.1981C5.4871 22.1902 9.31413 22.1882 13.1429 22.1981C14.1208 22.2001 14.7595 22.8668 14.7544 23.8161C14.7509 24.7754 14.1226 25.4083 13.1394 25.4122C11.2147 25.4202 9.28989 25.4142 7.36513 25.4142Z" fill="#31B224"/>
<path d="M9.41967 14.5736C10.6746 14.5736 11.9277 14.5657 13.1827 14.5756C14.1225 14.5836 14.737 15.2085 14.7543 16.1439C14.7716 17.0733 14.1537 17.7758 13.2311 17.7837C10.6573 17.8036 8.08341 17.8017 5.51129 17.7837C4.61988 17.7778 3.97252 17.0354 3.99675 16.1299C4.02098 15.2503 4.65623 14.5876 5.52687 14.5776C6.82505 14.5617 8.12149 14.5736 9.41967 14.5736Z" fill="#31B224"/>
</g>
<defs>
<clipPath id="clip0_164_683">
<rect width="60" height="40" fill="white"/>
</clipPath>
</defs>
</svg>
