<svg width="40" height="50" viewBox="0 0 40 50" fill="none" xmlns="http://www.w3.org/2000/svg">
<g clip-path="url(#clip0_164_679)">
<path d="M19.9673 -0.000374694C27.8701 0.25211 34.0487 3.56318 37.5881 10.5944C41.4818 18.3335 40.6336 25.9225 35.2431 32.7635C30.8554 38.3326 26.1719 43.6779 21.6151 49.1191C20.6271 50.2985 19.2392 50.2905 18.243 49.1015C13.7383 43.7227 9.21891 38.355 4.74179 32.9521C1.17633 28.6519 -0.331751 23.6789 0.0598964 18.1689C0.679056 9.49178 6.89178 2.39344 15.4755 0.472635C16.9446 0.143446 18.4348 -0.0163547 19.9673 -0.000374694ZM35.7388 19.8037C35.7388 19.3451 35.7502 18.8849 35.7339 18.4262C35.7242 18.1689 35.6689 17.9117 35.6364 17.6544C35.1619 13.9342 33.6245 10.7159 30.8229 8.15425C27.4313 5.05412 23.3783 3.71179 18.7647 4.04098C13.4815 4.41651 9.35054 6.79754 6.53101 11.1857C2.80793 16.98 3.34746 24.9349 7.77908 30.3298C11.6582 35.0519 15.612 39.7133 19.5236 44.4098C19.821 44.7662 20.0371 44.8876 20.3232 44.4306C20.4077 44.2963 20.5295 44.1845 20.6336 44.0614C24.1551 39.8523 27.6393 35.6112 31.2113 31.442C34.1072 28.0622 35.7794 24.2653 35.7388 19.8053V19.8037Z" fill="#31B224"/>
<path d="M10.1421 19.2098C10.1453 13.8421 14.5006 9.61373 20.021 9.62012C25.4001 9.62652 29.7342 13.9299 29.7277 19.2593C29.7212 24.6478 25.3806 28.8857 19.8796 28.8793C14.4535 28.8729 10.1405 24.5886 10.1437 19.2114L10.1421 19.2098ZM14.1317 19.2465C14.2682 22.5464 16.6815 24.929 19.9154 24.9242C23.3606 24.9178 25.6812 22.3642 25.717 19.2193C25.7527 16.1128 23.0437 13.5193 19.9203 13.5432C16.7692 13.5672 14.1366 16.1608 14.1317 19.2465Z" fill="#31B224"/>
</g>
<defs>
<clipPath id="clip0_164_679">
<rect width="40" height="50" fill="white"/>
</clipPath>
</defs>
</svg>
