<svg width="73" height="73" viewBox="0 0 73 73" fill="none" xmlns="http://www.w3.org/2000/svg">
<g clip-path="url(#clip0_282_47)">
<path d="M4.90651 73.0002H2.76906C0.963461 72.3026 0 71.0536 0 69.0535C0.0124893 47.359 0.00713675 25.6664 0.00892093 3.9719C0.00892093 3.56866 0.00892094 3.16899 0.119541 2.77111C0.681559 0.769203 2.48359 -0.254945 4.73702 0.0733537C9.31167 0.738872 13.8899 1.36335 18.4681 2.00211C23.4692 2.69974 28.4685 3.4063 33.4713 4.0843C34.8041 4.26451 36.128 4.58924 37.4983 4.39298C41.4163 3.82916 45.3362 3.28318 49.2578 2.73364C55.3151 1.88613 61.3707 1.04397 67.428 0.19825C67.8277 0.142939 68.2255 0.0804906 68.6252 0.0358848C70.545 -0.180007 72.1704 0.574722 73 2.76754V70.2935C72.5165 71.6156 71.6351 72.5363 70.2934 73.0002H68.1559C63.9792 72.4007 59.8042 71.7923 55.6274 71.2035C50.2748 70.4487 44.9223 69.6994 39.5643 68.9714C38.3225 68.8019 37.0879 68.4718 35.8193 68.6431C32.6239 69.0767 29.4319 69.5317 26.2383 69.9777C21.6368 70.62 17.0336 71.2588 12.4322 71.9082C9.92186 72.2633 7.4133 72.6362 4.90473 73.0002H4.90651ZM37.9586 62.0415C38.1084 61.7863 38.2387 61.5686 38.3672 61.3474C39.807 58.8637 41.097 56.2891 42.6688 53.8857C44.2746 51.4306 46.5798 49.9355 49.4362 49.2789C51.7735 48.7418 54.1197 49.1361 56.457 49.2235C60.7926 49.3859 65.1264 49.6553 69.4602 49.8641C70.5057 49.914 70.5146 49.8819 70.5146 48.8685C70.5146 34.104 70.5146 19.3395 70.5111 4.57675C70.5111 4.24667 70.4843 3.91302 70.4272 3.58829C70.3166 2.96202 69.9258 2.63908 69.2853 2.64443C69.0016 2.648 68.7144 2.64978 68.4325 2.68903C63.5492 3.36883 58.6658 4.05754 53.7843 4.7409C48.8778 5.42783 43.9713 6.11833 39.063 6.79098C37.8569 6.95691 37.8515 6.92837 37.8515 8.11666C37.8515 25.8234 37.8515 43.5318 37.8551 61.2385C37.8551 61.4848 37.7784 61.7488 37.9586 62.0415ZM35.0718 62.0075C35.1181 61.9879 35.1663 61.9701 35.2127 61.9505C35.2127 59.4829 35.2127 57.0171 35.2127 54.5495C35.2127 39.0249 35.2127 23.5021 35.2198 7.97749C35.2198 7.38156 35.1931 6.92658 34.4312 6.82488C30.5774 6.31281 26.7271 5.76862 22.8768 5.23513C18.2504 4.59281 13.6258 3.94513 8.99944 3.30638C7.33301 3.07621 5.66658 2.83534 3.99301 2.65157C3.11697 2.55522 2.72445 2.91385 2.58529 3.78634C2.54782 4.01829 2.54782 4.25916 2.54782 4.49646C2.54782 19.3091 2.54603 34.12 2.54782 48.9327C2.54782 49.8623 2.5728 49.8819 3.52198 49.8712C3.71111 49.8694 3.90202 49.8623 4.09114 49.8516C6.72103 49.7178 9.34914 49.584 11.979 49.4501C14.4894 49.3217 16.9997 49.2003 19.5101 49.0665C21.0802 48.9827 22.6395 48.9916 24.1704 49.418C27.2945 50.2869 29.5515 52.2193 31.1198 55.0223C32.4258 57.3578 33.7532 59.6827 35.07 62.0111L35.0718 62.0075ZM2.54782 61.0405C2.54782 63.4617 2.54782 65.8811 2.54782 68.3023C2.54782 70.2864 2.97424 70.6129 4.9422 70.3292C10.2198 69.5709 15.5028 68.8465 20.784 68.1096C25.1017 67.5066 29.4195 66.8892 33.7408 66.3147C34.4455 66.2201 34.3545 65.9989 34.0833 65.5243C32.3527 62.4964 30.622 59.4686 28.9306 56.4193C27.1125 53.1399 24.4005 51.4842 20.6145 51.6608C17.1335 51.8232 13.649 51.957 10.1681 52.1211C7.91822 52.2282 5.67193 52.3888 3.42207 52.4762C2.73873 52.503 2.52998 52.7545 2.53711 53.4218C2.56744 55.9608 2.5496 58.4998 2.5496 61.0387L2.54782 61.0405ZM70.5164 61.094C70.5164 58.5319 70.5021 55.9679 70.5271 53.4058C70.5325 52.7884 70.3665 52.5047 69.6975 52.4815C67.6599 52.4155 65.6242 52.2942 63.5884 52.1943C59.6347 51.9998 55.6827 51.7108 51.7236 51.6679C48.6833 51.6358 46.2711 52.9562 44.7082 55.5361C42.6813 58.8834 40.8133 62.3269 38.8685 65.7241C38.6205 66.1559 38.8078 66.2308 39.2022 66.2843C42.8651 66.7875 46.5245 67.3085 50.1856 67.8206C54.8084 68.4665 59.433 69.1106 64.0577 69.7493C65.7241 69.9795 67.3887 70.2239 69.0623 70.4006C69.9722 70.4969 70.3683 70.1169 70.4896 69.2069C70.5236 68.95 70.5164 68.6859 70.5164 68.4254C70.5164 65.981 70.5164 63.5366 70.5164 61.094Z" fill="#31B224"/>
<path d="M54.1643 30.3605C58.2216 30.3605 62.2806 30.3605 66.3378 30.3605C67.5493 30.3605 68.1863 30.8119 68.1916 31.6523C68.1987 32.5015 67.5546 32.9904 66.3646 32.9904C58.2251 32.9958 50.0857 32.994 41.9462 32.9904C41.7107 32.9904 41.4698 32.969 41.2415 32.9191C40.5331 32.7656 40.1174 32.2803 40.1281 31.6451C40.1388 30.9903 40.6241 30.4782 41.3503 30.3855C41.6072 30.3516 41.8713 30.3623 42.1318 30.3623C46.1426 30.3623 50.1535 30.3623 54.1625 30.3623L54.1643 30.3605Z" fill="#31B224"/>
<path d="M54.1643 40.2754C50.1535 40.2754 46.1444 40.2754 42.1336 40.2719C41.8035 40.2719 41.4645 40.2647 41.1451 40.1934C40.5135 40.0542 40.1478 39.626 40.1406 38.9836C40.1335 38.3467 40.4689 37.9006 41.1041 37.7436C41.3771 37.6758 41.6661 37.6437 41.9462 37.6437C50.0857 37.6383 58.2251 37.6401 66.3646 37.6401C66.4592 37.6401 66.5537 37.6401 66.6501 37.6455C67.6207 37.7043 68.1987 38.2039 68.1934 38.9765C68.188 39.7419 67.5885 40.2647 66.6233 40.2683C63.087 40.2826 59.5526 40.2754 56.0163 40.2754C55.399 40.2754 54.7817 40.2754 54.1661 40.2754H54.1643Z" fill="#31B224"/>
<path d="M41.7446 18.3401C40.7901 18.3544 40.2566 17.9601 40.1478 17.2731C40.0354 16.563 40.4511 15.9492 41.2736 15.8154C43.4949 15.4568 45.7234 15.1481 47.95 14.8287C53.1081 14.0883 58.2662 13.3532 63.4243 12.6145C64.4556 12.4664 65.4868 12.3148 66.5199 12.1702C67.3745 12.0507 68.0703 12.4967 68.1845 13.2318C68.3005 13.9759 67.8009 14.6075 66.9213 14.7413C64.8606 15.0535 62.7945 15.3355 60.732 15.6299C55.5739 16.3667 50.414 17.1036 45.2559 17.8405C44.0373 18.0154 42.8169 18.1867 41.7446 18.3383V18.3401Z" fill="#31B224"/>
<path d="M41.9141 25.6144C41.8195 25.618 41.725 25.6251 41.6304 25.6269C40.7544 25.6394 40.1817 25.1916 40.1335 24.4547C40.0871 23.741 40.5617 23.1932 41.3913 23.0951C42.7794 22.9309 44.1729 22.8025 45.5645 22.6687C48.8439 22.3511 52.1214 22.037 55.4008 21.7248C58.6087 21.4197 61.8185 21.1164 65.0265 20.8148C65.6402 20.7578 66.254 20.6828 66.8677 20.681C67.5957 20.681 68.1149 21.1646 68.1863 21.8247C68.2558 22.4653 67.833 23.0773 67.1033 23.1843C65.8383 23.3699 64.5626 23.4787 63.2887 23.6036C59.4437 23.9765 55.5988 24.3423 51.7539 24.7063C48.4746 25.0167 45.1952 25.32 41.9141 25.6269C41.9141 25.6233 41.9141 25.618 41.9141 25.6144Z" fill="#31B224"/>
<path d="M4.8548 25.5966C4.8548 20.9219 4.85123 16.2454 4.8548 11.5707C4.85658 9.27622 6.11443 8.2378 8.37678 8.60892C15.6045 9.79365 22.834 10.9695 30.0654 12.1399C32.2242 12.4896 32.995 13.3514 32.995 15.5121C32.9986 23.534 32.9986 31.5559 32.995 39.5778C32.995 41.2942 32.2278 42.3594 30.8165 42.6413C30.5399 42.6966 30.2509 42.7002 29.9672 42.7002C22.586 42.7038 15.2049 42.7056 7.82368 42.7002C5.87535 42.7002 4.85836 41.6654 4.85658 39.6956C4.85301 34.9959 4.85658 30.2962 4.85658 25.5984L4.8548 25.5966ZM7.57925 31.1901C7.97534 31.0456 8.15554 30.7209 8.38749 30.4675C9.65069 29.0812 10.8925 27.677 12.1593 26.2942C13.1138 25.254 13.8114 25.2754 14.757 26.3424C15.5117 27.1952 16.2772 28.041 17.0015 28.9188C17.3512 29.3435 17.6028 29.3256 17.9686 28.9456C18.8393 28.0392 19.7385 27.1578 20.6324 26.2728C21.6779 25.2397 22.3202 25.2701 23.3015 26.3745C25.4604 28.8046 27.621 31.2347 29.7888 33.6595C29.9333 33.8219 30.0261 34.077 30.3615 34.0842C30.3615 33.8344 30.3615 33.5988 30.3615 33.3651C30.3615 27.5271 30.3615 21.6873 30.3615 15.8493C30.3615 14.8127 30.3508 14.8145 29.3196 14.6485C22.3702 13.5227 15.4207 12.3933 8.47134 11.2621C7.52037 11.1068 7.46863 11.139 7.46863 12.1292C7.46863 18.2045 7.46863 24.2816 7.46863 30.3569C7.46863 30.6138 7.42046 30.8797 7.57747 31.1901H7.57925ZM18.8928 40.0792V40.0667C22.4041 40.0667 25.9153 40.0685 29.4266 40.0631C29.7424 40.0631 30.2117 40.1827 30.2884 39.7759C30.4026 39.1656 30.5685 38.4823 30.0885 37.9381C27.4819 34.987 24.8591 32.0483 22.2488 29.099C21.9794 28.7939 21.7671 28.7921 21.4888 29.0794C20.8607 29.7271 20.2309 30.373 19.5743 30.9885C19.2211 31.3204 19.296 31.5577 19.5886 31.8771C20.3094 32.6639 21.0035 33.4757 21.7047 34.2822C22.1239 34.7657 22.5664 35.235 22.9393 35.7524C23.3604 36.3341 23.2587 37.0638 22.7662 37.4903C22.2506 37.9363 21.5851 37.9185 21.0302 37.4117C20.7519 37.1566 20.5039 36.864 20.2541 36.5785C18.1291 34.1502 15.9988 31.7272 13.8917 29.2846C13.5402 28.8778 13.335 28.8439 12.9621 29.265C11.426 31.0099 9.88263 32.7496 8.28579 34.4392C7.66489 35.0958 7.38477 35.7774 7.45792 36.6677C7.51502 37.3743 7.46863 38.0898 7.47041 38.8017C7.47041 39.6533 7.88613 40.0798 8.71756 40.081C12.1093 40.081 15.5028 40.081 18.8946 40.081L18.8928 40.0792Z" fill="#31B224"/>
<path d="M20.6698 20.7042C20.6769 18.6684 22.3879 16.9662 24.3987 16.993C26.4327 17.0198 28.1098 18.7273 28.0902 20.7506C28.0706 22.7935 26.3845 24.4671 24.3523 24.4582C22.3255 24.4493 20.6609 22.7543 20.668 20.706L20.6698 20.7042ZM25.4853 20.7631C25.5049 20.1939 25.0143 19.6693 24.4326 19.6354C23.8314 19.5997 23.3425 20.044 23.3122 20.656C23.2783 21.318 23.7225 21.8051 24.363 21.8104C24.959 21.8158 25.4675 21.3412 25.4871 20.7631H25.4853Z" fill="#31B224"/>
</g>
<defs>
<clipPath id="clip0_282_47">
<rect width="73" height="73" fill="white"/>
</clipPath>
</defs>
</svg>
