<svg width="87" height="87" viewBox="0 0 87 87" fill="none" xmlns="http://www.w3.org/2000/svg">
<g clip-path="url(#clip0_283_65)">
<path d="M46.2294 14.0099C58.3656 14.0099 70.5018 14.0099 82.638 14.0099C84.3337 14.0099 85.6411 14.7246 86.4433 16.2122C87.2409 17.6905 87.1777 19.2015 86.2726 20.6191C85.44 21.9222 84.2004 22.5388 82.6544 22.5388C77.4622 22.5388 72.2676 22.5574 67.0754 22.5201C66.2077 22.5131 65.9154 22.7233 65.9294 23.6341C65.9832 27.1068 65.9715 30.5795 65.9341 34.0545C65.9247 34.8322 66.1703 35.0541 66.9328 35.0424C69.8493 35.0027 72.7682 35.0167 75.6847 35.0307C79.6747 35.0471 82.7456 38.0877 82.7503 42.0649C82.762 54.704 82.762 67.3407 82.7503 79.9798C82.7456 83.9056 79.6701 86.9883 75.7478 86.9906C57.5143 87.0023 39.2807 87 21.0472 86.9906C17.0711 86.9906 14.0119 83.9126 14.0096 79.9238C14.0002 67.3151 14.0002 54.7063 14.0096 42.0976C14.0119 38.1088 17.0688 35.0564 21.0425 35.0284C22.1511 35.0214 23.2597 34.9957 24.3683 35.0377C25.0255 35.0611 25.2267 34.8159 25.2196 34.1736C25.1916 31.6935 25.1869 29.211 25.2196 26.7308C25.2313 25.9484 25.0162 25.8176 24.3239 26.1469C21.1197 27.6766 18.1634 29.5823 15.4737 31.9037C13.032 34.0125 10.9083 36.4063 9.04893 39.0429C8.6794 39.566 8.49463 40.0962 8.511 40.7454C8.54608 42.1466 8.53439 43.5479 8.51802 44.9491C8.48761 47.3452 6.66098 49.1528 4.28472 49.1598C1.85467 49.1668 0.00465563 47.3639 0.0023168 44.9164C-0.00703854 31.3432 -0.00703854 17.7722 0.0023168 4.19901C0.0093333 1.81458 1.85701 0.00699608 4.23795 -1.00632e-05C6.67501 -0.00701621 8.50632 1.78656 8.52269 4.24104C8.5414 7.16027 8.55544 10.0795 8.511 12.9964C8.49697 13.8184 8.76593 14.0263 9.5588 14.0263C21.7816 14.0053 34.0066 14.0099 46.2294 14.0123V14.0099ZM45.647 37.9546C37.6529 37.9546 29.6611 37.95 21.6669 37.9546C18.6311 37.9546 16.9331 39.6431 16.9331 42.6674C16.9285 54.8955 16.9285 67.1259 16.9331 79.354C16.9331 82.3783 18.6311 84.0597 21.6669 84.0691C24.4081 84.0761 27.1515 84.0691 29.8926 84.0691C43.1071 84.0691 56.3215 84.0714 69.5382 84.0667C72.4127 84.0667 74.2136 82.4156 74.2182 79.6599C74.2416 67.2263 74.2323 54.7927 74.2229 42.3615C74.2229 41.1261 73.8487 40.0051 72.9225 39.1223C71.973 38.2185 70.8035 37.9523 69.5406 37.9523C61.5768 37.9523 53.6131 37.9523 45.6494 37.9523L45.647 37.9546ZM45.647 22.5411C42.0008 22.5411 38.3522 22.5551 34.706 22.5294C34.023 22.5248 33.7166 22.6719 33.7236 23.4426C33.7587 27.004 33.754 30.5655 33.726 34.1269C33.7213 34.8019 33.9108 35.0447 34.6171 35.0424C41.9119 35.0214 49.2067 35.0191 56.5016 35.0424C57.2406 35.0447 57.4441 34.7949 57.4371 34.0826C57.409 30.5795 57.402 27.0764 57.4394 23.5733C57.4488 22.7816 57.2383 22.5131 56.4127 22.5224C52.8249 22.5645 49.2348 22.5411 45.647 22.5411ZM45.7546 19.6149C57.7435 19.6149 69.7324 19.6149 81.7212 19.6125C82.1001 19.6125 82.486 19.6195 82.8532 19.5495C83.5315 19.4187 83.9688 18.9796 83.9759 18.286C83.9829 17.5924 83.5549 17.1464 82.8766 17.0039C82.5375 16.9338 82.182 16.9362 81.8335 16.9362C57.7973 16.9338 33.7611 16.9338 9.72719 16.9338C9.55178 16.9338 9.37637 16.9455 9.20329 16.9338C8.71916 16.9012 8.50165 17.1183 8.52971 17.6064C8.54608 17.868 8.52971 18.1319 8.52971 18.3935C8.52971 19.2062 8.94992 19.6125 9.79034 19.6125C21.7792 19.6125 33.7681 19.6125 45.757 19.6125L45.7546 19.6149ZM75.9022 83.943C78.372 83.7935 79.8291 82.0466 79.8314 79.4007C79.8385 67.1422 79.8314 54.8815 79.8385 42.6231C79.8385 42.0626 79.766 41.5137 79.6303 40.9789C79.2023 39.2951 77.5885 38.0317 75.963 38.1601C77.1161 39.7739 77.1745 41.5885 77.1698 43.4521C77.1441 55.1571 77.1441 66.862 77.1698 78.5669C77.1745 80.4306 77.1184 82.2452 75.9045 83.943H75.9022ZM2.92586 24.5799C2.92586 31.0886 2.92586 37.5996 2.92586 44.1084C2.92586 45.4816 3.38895 46.1939 4.26367 46.1939C5.1384 46.1939 5.60149 45.4816 5.60149 44.1084C5.60149 31.0886 5.60149 18.0688 5.60149 5.05142C5.60149 3.68055 5.1384 2.96593 4.26134 2.96593C3.38427 2.96593 2.92352 3.67822 2.92352 5.05142C2.92352 11.5601 2.92352 18.0712 2.92352 24.5799H2.92586ZM8.53205 34.8159C13.0671 29.3044 18.4417 25.3272 24.7378 22.5388C24.2771 22.5388 23.8187 22.5388 23.3579 22.5388C18.7224 22.5388 14.0891 22.5388 9.45355 22.5411C9.03256 22.5411 8.52737 22.4267 8.52737 23.1296C8.53205 26.9433 8.52737 30.757 8.52737 34.8159H8.53205ZM30.8141 28.7836C30.8141 27.2656 30.8258 25.7476 30.8118 24.2296C30.7954 22.3169 31.0854 22.5855 29.0623 22.5248C28.3233 22.5037 28.1175 22.7676 28.1245 23.4823C28.1549 26.7214 28.1245 29.9629 28.1432 33.2021C28.1572 35.2666 27.7807 34.9887 30.0213 35.0331C30.6411 35.0447 30.8328 34.8089 30.8235 34.211C30.7978 32.4011 30.8141 30.5912 30.8141 28.7812V28.7836ZM63.0269 28.87C63.0269 27.324 63.0386 25.7756 63.0246 24.2296C63.0082 22.3192 63.2982 22.5878 61.2728 22.5271C60.5314 22.5037 60.3302 22.7746 60.3349 23.4869C60.3653 26.7261 60.3349 29.9676 60.3536 33.2068C60.3676 35.2689 59.9888 34.991 62.234 35.0377C62.8562 35.0494 63.0433 34.8112 63.0363 34.2133C63.0105 32.4338 63.0269 30.6519 63.0269 28.8723V28.87Z" fill="#31B224"/>
<path d="M45.509 77.1891C37.5476 77.1891 29.5863 77.1891 21.6249 77.1891C20.0181 77.1891 19.6111 76.7804 19.6088 75.1713C19.6064 73.5669 19.5994 71.9625 19.6111 70.3581C19.6205 69.16 20.1186 68.6766 21.3302 68.6626C22.2634 68.6509 23.1989 68.6112 24.1298 68.6743C24.9577 68.7303 25.2617 68.4734 25.2267 67.607C25.1495 65.5659 25.1471 63.5201 25.657 61.5186C27.5749 53.9707 32.1964 48.9029 39.6035 46.4508C40.3753 46.1962 40.7004 45.8879 40.6349 45.0589C40.5601 44.1014 40.6022 43.1345 40.6256 42.1723C40.6513 41.1845 41.1635 40.6543 42.1505 40.645C44.4238 40.624 46.6995 40.6263 48.9752 40.645C50.0043 40.6543 50.5165 41.1868 50.5375 42.2284C50.5586 43.2209 50.5913 44.2158 50.5282 45.2037C50.4814 45.9323 50.7808 46.2009 51.4427 46.4134C58.6252 48.7371 63.2304 53.5713 65.3283 60.8087C65.9692 63.0226 66.023 65.2973 65.9364 67.5766C65.9037 68.3963 66.1212 68.742 66.9983 68.6789C67.9853 68.6089 68.9816 68.6486 69.9709 68.6696C71.0047 68.6906 71.5333 69.2091 71.545 70.2413C71.566 71.9625 71.559 73.6837 71.5496 75.4048C71.5426 76.7126 71.0655 77.1891 69.7417 77.1914C62.7135 77.1961 55.6853 77.1937 48.6571 77.1937C47.607 77.1937 46.5568 77.1937 45.5067 77.1937L45.509 77.1891ZM45.5395 68.6579C45.8903 68.6579 46.2388 68.6579 46.5896 68.6579C51.7514 68.6579 56.9156 68.6462 62.0774 68.6696C62.7837 68.6719 63.048 68.4828 63.0456 67.7378C63.041 66.2758 63.0176 64.8139 62.8024 63.3729C61.4389 54.2486 53.2389 47.7749 44.1432 48.5853C39.0609 49.0384 34.9749 51.2943 31.8245 55.2598C28.9431 58.8867 28.0216 63.1137 28.1151 67.6537C28.1315 68.4874 28.3981 68.6766 29.177 68.6719C34.6311 68.6439 40.0853 68.6579 45.5395 68.6579ZM45.5815 71.5841C39.0164 71.5841 32.4513 71.5841 25.8862 71.5841C25.0115 71.5841 24.1344 71.6028 23.2597 71.5795C22.7428 71.5655 22.4902 71.7523 22.5323 72.2894C22.551 72.5206 22.5323 72.7565 22.5323 72.99C22.5323 73.8386 22.9642 74.2628 23.828 74.2628C38.3288 74.2628 52.8319 74.2628 67.3327 74.2628C67.5362 74.2628 67.742 74.2511 67.9455 74.2628C68.4226 74.2932 68.6588 74.097 68.6284 73.6019C68.6121 73.3404 68.6284 73.0765 68.6284 72.8149C68.6284 71.996 68.2113 71.5857 67.3772 71.5841C60.1127 71.5841 52.846 71.5841 45.5815 71.5841ZM45.4997 45.5446V45.5493C45.9932 45.5493 46.4867 45.533 46.9802 45.554C47.7333 45.5843 47.6257 45.0472 47.6163 44.5965C47.607 44.1364 47.7941 43.5409 46.9708 43.5596C46.1008 43.5782 45.2284 43.5969 44.3583 43.5526C43.6801 43.5175 43.521 43.8188 43.5327 44.433C43.5538 45.547 43.5327 45.554 44.6296 45.547C44.9197 45.547 45.2097 45.547 45.4997 45.547V45.5446Z" fill="#31B224"/>
</g>
<defs>
<clipPath id="clip0_283_65">
<rect width="87" height="87" fill="white"/>
</clipPath>
</defs>
</svg>
