<svg width="20" height="20" viewBox="0 0 20 20" fill="none" xmlns="http://www.w3.org/2000/svg">
<g clip-path="url(#clip0_200_128)">
<path d="M10.8279 19.9999H9.22747C9.01532 19.9735 8.80219 19.951 8.59054 19.9197C7.36947 19.7394 6.21586 19.3566 5.13655 18.7549C5.01385 18.6865 4.89849 18.6758 4.76407 18.7139C4.38914 18.8204 4.01129 18.9172 3.6349 19.0179C2.84399 19.23 2.05406 19.4441 1.26266 19.6543C0.550942 19.8435 0.173574 19.4603 0.362747 18.7442C0.367635 18.7251 0.374478 18.707 0.379367 18.688C0.682434 17.5584 0.984524 16.4283 1.29052 15.2997C1.33354 15.1419 1.33354 15.0035 1.25142 14.8525C0.168686 12.8646 -0.219436 10.7482 0.118338 8.50567C0.449268 6.31006 1.40344 4.41407 2.99357 2.87685C5.44939 0.501858 8.40185 -0.399457 11.7688 0.160688C15.5464 0.789262 18.6729 3.66575 19.6662 7.35214C19.829 7.95628 19.9233 8.57117 20 9.18997V10.8289C19.9917 10.8797 19.98 10.9305 19.9751 10.9818C19.894 11.8401 19.7053 12.6745 19.4047 13.482C18.6871 15.4078 17.4831 16.9655 15.8158 18.1601C14.8191 18.8742 13.7212 19.3845 12.5319 19.6954C11.9712 19.8415 11.4003 19.9227 10.8279 20.0004V19.9999ZM10.0252 1.26876C9.11895 1.26485 8.21415 1.3978 7.43106 1.64512C5.28564 2.32208 3.62903 3.63007 2.47591 5.55294C1.43033 7.29691 1.05345 9.19534 1.32767 11.2111C1.48507 12.3705 1.8688 13.459 2.47786 14.4605C2.65042 14.7445 2.67681 15.0192 2.58785 15.334C2.34148 16.2099 2.11174 17.0902 1.87662 17.969C1.81894 18.1845 1.83213 18.1972 2.05015 18.1391C2.82884 17.9314 3.61632 17.7515 4.38181 17.5037C4.91609 17.3306 5.34772 17.4132 5.83507 17.6855C7.68085 18.7163 9.66251 19.0111 11.7356 18.5976C13.3208 18.2818 14.7228 17.576 15.9018 16.4674C18.2501 14.2601 19.1559 11.5347 18.5947 8.38152C17.8492 4.19119 14.1562 1.24676 10.0247 1.26778L10.0252 1.26876Z" fill="#31B224"/>
<path d="M4.5719 8.02044C4.59976 6.99107 4.86177 6.03403 5.62873 5.27006C5.85163 5.04816 6.10483 4.86438 6.38835 4.72947C6.92165 4.47579 7.44029 4.5276 7.8812 4.91374C8.30109 5.28131 8.70046 5.67722 9.07098 6.09415C9.66539 6.76378 9.55491 7.64995 8.84026 8.19347C8.72148 8.2839 8.59879 8.37041 8.47267 8.45057C8.37051 8.51558 8.34656 8.5889 8.37051 8.71158C8.6858 10.3192 9.71182 11.3432 11.3151 11.6492C11.4295 11.6712 11.4975 11.6472 11.5615 11.5539C11.6901 11.3666 11.8137 11.175 11.9682 11.0064C12.4306 10.503 13.2636 10.4121 13.7949 10.8417C14.2906 11.2425 14.7457 11.6951 15.1455 12.1893C15.5253 12.658 15.538 13.1957 15.2389 13.7231C14.644 14.773 13.6952 15.274 12.5343 15.4025C11.1636 15.554 9.90051 15.1743 8.73174 14.4939C7.05803 13.5197 5.81154 12.1492 5.0617 10.35C4.75374 9.61094 4.58999 8.83915 4.57141 8.01995L4.5719 8.02044ZM5.84185 7.93246C5.84332 8.93251 6.12194 9.76149 6.55113 10.5367C7.35083 11.9806 8.50249 13.0583 10.0178 13.7275C10.8141 14.0789 11.6446 14.27 12.523 14.1341C13.1722 14.0339 13.7265 13.7729 14.0936 13.1947C14.1772 13.0632 14.1777 12.9615 14.0643 12.8506C13.7534 12.5456 13.4493 12.2333 13.138 11.9283C12.9962 11.789 12.9312 11.7978 12.8119 11.9635C12.6413 12.201 12.4771 12.4434 12.3084 12.6825C12.1329 12.9312 11.8915 13.0187 11.5938 12.9762C11.2848 12.9322 10.9779 12.877 10.6777 12.7905C9.64779 12.4938 8.73761 12.0065 8.08259 11.1271C7.46473 10.2972 7.15091 9.34944 7.03408 8.33131C7.00426 8.0703 7.11815 7.86306 7.33128 7.71251C7.57569 7.53997 7.82059 7.36841 8.06695 7.1988C8.19453 7.11082 8.22631 7.016 8.10703 6.89673C7.7849 6.57511 7.46277 6.25349 7.14211 5.93041C7.05461 5.84243 6.96858 5.83754 6.86299 5.90108C6.62494 6.04381 6.4255 6.22612 6.26908 6.45536C5.94548 6.93144 5.85163 7.4691 5.84136 7.93246H5.84185Z" fill="#31B224"/>
</g>
<defs>
<clipPath id="clip0_200_128">
<rect width="20" height="20" fill="white"/>
</clipPath>
</defs>
</svg>
